<svg xmlns="http://www.w3.org/2000/svg" data-name="Layer 1" viewBox="0 40 100 20" x="0px" y="0px" fill="red"><path d="M19.34,47.67l-5.44-.79-2.43-4.93a.48.48,0,0,0-.44-.27.5.5,0,0,0-.44.27L8.16,46.88l-5.44.79a.49.49,0,0,0-.39.33.49.49,0,0,0,.12.5l3.94,3.84-.93,5.42a.5.5,0,0,0,.19.48.49.49,0,0,0,.52,0L11,55.72l4.87,2.55a.46.46,0,0,0,.22.06.48.48,0,0,0,.29-.09.5.5,0,0,0,.2-.48l-.93-5.42,3.93-3.84a.49.49,0,0,0,.13-.5A.51.51,0,0,0,19.34,47.67Z"/><path d="M38.83,47.67l-5.44-.79L31,41.95a.5.5,0,0,0-.44-.27.48.48,0,0,0-.44.27l-2.43,4.93-5.44.79a.51.51,0,0,0-.4.33.49.49,0,0,0,.12.5l3.94,3.84-.93,5.42a.5.5,0,0,0,.2.48.47.47,0,0,0,.51,0l4.87-2.55,4.86,2.55a.46.46,0,0,0,.23.06.52.52,0,0,0,.29-.09.5.5,0,0,0,.19-.48l-.93-5.42L39.1,48.5a.49.49,0,0,0,.12-.5A.51.51,0,0,0,38.83,47.67Z"/><path d="M58.31,47.67l-5.44-.79-2.43-4.93a.48.48,0,0,0-.44-.27.5.5,0,0,0-.44.27l-2.43,4.93-5.44.79a.49.49,0,0,0-.39.33.49.49,0,0,0,.12.5l3.94,3.84-.93,5.42a.5.5,0,0,0,.19.48.49.49,0,0,0,.52,0L50,55.72l4.87,2.55a.48.48,0,0,0,.51,0,.5.5,0,0,0,.2-.48l-.93-5.42,3.93-3.84a.47.47,0,0,0,.13-.5A.51.51,0,0,0,58.31,47.67Z"/><path d="M77.8,47.67l-5.44-.79-2.43-4.93a.5.5,0,0,0-.44-.27.48.48,0,0,0-.44.27l-2.43,4.93-5.44.79a.51.51,0,0,0-.4.33.47.47,0,0,0,.13.5l3.93,3.84-.93,5.42a.5.5,0,0,0,.2.48.47.47,0,0,0,.51,0l4.87-2.55,4.86,2.55a.46.46,0,0,0,.23.06.52.52,0,0,0,.29-.09.5.5,0,0,0,.19-.48l-.93-5.42,3.94-3.84a.49.49,0,0,0,.12-.5A.49.49,0,0,0,77.8,47.67Z"/><path d="M97.68,48a.51.51,0,0,0-.4-.33l-5.44-.79-2.43-4.93a.48.48,0,0,0-.44-.27.5.5,0,0,0-.44.27L86.1,46.88l-5.44.79a.51.51,0,0,0-.39.33.49.49,0,0,0,.12.5l3.94,3.84-.93,5.42a.5.5,0,0,0,.19.48.49.49,0,0,0,.52,0L89,55.72l4.87,2.55a.48.48,0,0,0,.51,0,.5.5,0,0,0,.2-.48l-.93-5.42,3.93-3.84A.47.47,0,0,0,97.68,48Z"/></svg>
