<svg xmlns="http://www.w3.org/2000/svg" version="1.1" viewBox="0 10 100 80" width="80px">
 <path d="m77.613 57.762c-0.42969 0.003906-0.77344 0.35156-0.78125 0.78125v11.977c-0.003906 2.8125-2.2812 5.0898-5.0938 5.0938h-50.531c-2.8086-0.003906-5.0859-2.2812-5.0938-5.0938v-20.594h36.773c2.4141 0 4.375-1.957 4.375-4.375 0-2.4141-1.9609-4.375-4.375-4.375h-36.773v-2.7812c0.023438-2.7969 2.2969-5.0547 5.0938-5.0625h36.461c0.42969 0 0.78125-0.34766 0.78125-0.78125 0-0.42969-0.35156-0.78125-0.78125-0.78125h-36.461c-3.6484 0.023438-6.6016 2.9766-6.625 6.625v32.125c0.007813 3.6758 2.9844 6.6523 6.6562 6.6562h50.5c3.6758-0.003906 6.6523-2.9805 6.6562-6.6562v-11.977c0-0.43359-0.34766-0.78125-0.78125-0.78125zm-24.727-15.055c1.5508 0 2.8125 1.2617 2.8125 2.8125 0 1.5547-1.2617 2.8125-2.8125 2.8125h-36.773v-5.625zm-44.211 21.805v-32.117c0.007813-3.6719 2.9844-6.6484 6.6562-6.6562h42.773c0.42969 0 0.78125 0.35156 0.78125 0.78125 0 0.43359-0.35156 0.78125-0.78125 0.78125h-42.773c-2.8086 0.007813-5.0859 2.2852-5.0938 5.0938v32.117c0 1.4492 0.61328 2.8281 1.6875 3.8008 0.15625 0.13672 0.25 0.33203 0.26172 0.53906 0.011719 0.20703-0.058594 0.41016-0.19922 0.56641-0.14844 0.16406-0.35938 0.25781-0.58203 0.25781-0.19141-0.003906-0.37891-0.078125-0.51953-0.20703-1.4102-1.2656-2.2109-3.0664-2.2109-4.957zm42.281-6.75c0.003907 0.20703-0.078125 0.40625-0.22266 0.55469-0.14844 0.14844-0.34766 0.22656-0.55859 0.22656h-29.168 0.003907c-0.43359 0-0.78125-0.35156-0.78125-0.78125 0-0.43359 0.34766-0.78125 0.78125-0.78125h29.168-0.003907c0.43359 0 0.78125 0.34766 0.78125 0.78125zm-30.758 3.9141c0.003906-0.42969 0.35156-0.77344 0.78125-0.78125h16.844c0.42969 0 0.78125 0.35156 0.78125 0.78125 0 0.43359-0.35156 0.78125-0.78125 0.78125h-16.844c-0.43359 0-0.78125-0.34766-0.78125-0.78125zm29.98 4.707h-29.168v0.003907c-0.43359 0-0.78125-0.35156-0.78125-0.78125 0-0.43359 0.34766-0.78125 0.78125-0.78125h29.168-0.003907c0.43359 0 0.78125 0.34766 0.78125 0.78125 0 0.42969-0.34766 0.78125-0.78125 0.78125zm-12.355 2.3672c0.42969 0 0.78125 0.35156 0.78125 0.78125s-0.35156 0.78125-0.78125 0.78125h-16.844c-0.43359 0-0.78125-0.35156-0.78125-0.78125s0.34766-0.78125 0.78125-0.78125zm50.633-35.418c0.41406-2.125-0.25391-4.3203-1.7891-5.8555-1.5312-1.5312-3.7266-2.2031-5.8555-1.7891-1.2148-1.7969-3.2422-2.875-5.4102-2.875-2.1719 0-4.1992 1.0781-5.4141 2.875-2.125-0.41406-4.3203 0.25781-5.8555 1.7891-1.5312 1.5352-2.2031 3.7305-1.7891 5.8555-1.793 1.2148-2.8672 3.2422-2.8672 5.4062 0 2.168 1.0742 4.1914 2.8672 5.4062-0.41406 2.1289 0.25781 4.3242 1.7891 5.8594 1.5352 1.5352 3.7266 2.207 5.8555 1.7969 1.2188 1.793 3.2461 2.8672 5.4141 2.8672 2.1641 0 4.1914-1.0742 5.4102-2.8672 2.1289 0.41016 4.3242-0.26172 5.8555-1.7969s2.2031-3.7305 1.7891-5.8594c1.793-1.2148 2.8672-3.2383 2.8672-5.4062 0-2.1641-1.0742-4.1914-2.8672-5.4062zm-1.2695 9.7812c-0.30859 0.17969-0.46094 0.54297-0.36328 0.88672 0.50391 1.7461 0.015625 3.625-1.2656 4.9102-1.2852 1.2852-3.168 1.7695-4.9141 1.2656-0.34375-0.09375-0.70703 0.054688-0.88281 0.36719-0.87891 1.5859-2.5469 2.5703-4.3594 2.5703-1.8164 0-3.4844-0.98438-4.3594-2.5703-0.14453-0.24609-0.40625-0.39844-0.6875-0.39844-0.066407-0.007812-0.13281-0.007812-0.19922 0-1.7461 0.50391-3.625 0.019531-4.9102-1.2656s-1.7695-3.1641-1.2656-4.9102c0.09375-0.34375-0.054688-0.70703-0.36719-0.88672-1.5859-0.87891-2.5703-2.5508-2.5703-4.3633s0.98438-3.4844 2.5703-4.3633c0.3125-0.17969 0.46094-0.54297 0.36719-0.88672-0.50781-1.7461-0.023438-3.6289 1.2617-4.9102 1.2852-1.2852 3.1719-1.7656 4.9141-1.2578 0.34375 0.09375 0.70703-0.058593 0.88672-0.36328 0.87109-1.5938 2.543-2.5859 4.3594-2.5859s3.4883 0.99219 4.3594 2.5859c0.17969 0.30469 0.53906 0.45312 0.88281 0.36328 1.7461-0.50781 3.6289-0.027343 4.9141 1.2578 1.2852 1.2812 1.7695 3.1641 1.2656 4.9102-0.097657 0.34375 0.054687 0.70703 0.36328 0.88672 1.5859 0.87891 2.5703 2.5508 2.5703 4.3633s-0.98437 3.4844-2.5703 4.3633zm-11.793-11.395c-2.8477 0-5.418 1.7148-6.5039 4.3477-1.0898 2.6328-0.48828 5.6641 1.5312 7.6758 2.0156 2.0156 5.0469 2.6133 7.6758 1.5195 2.6328-1.0938 4.3438-3.6641 4.3398-6.5117-0.003906-3.8867-3.1562-7.0312-7.043-7.0312zm0 12.5c-2.2148 0-4.2109-1.3359-5.0625-3.3828-0.84766-2.0469-0.37891-4.4023 1.1875-5.9727 1.5703-1.5664 3.9258-2.0352 5.9727-1.1875 2.0469 0.85156 3.3828 2.8477 3.3828 5.0625 0.003906 1.457-0.57422 2.8516-1.6016 3.8828-1.0273 1.0312-2.4219 1.6094-3.8789 1.6094z"/>
</svg>
