<svg xmlns="http://www.w3.org/2000/svg" xmlns:xlink="http://www.w3.org/1999/xlink" xml:space="preserve" style="shape-rendering:geometricPrecision;text-rendering:geometricPrecision;image-rendering:optimizeQuality;" viewBox="-1 0 8 7" x="0px" y="0px" fill-rule="evenodd" clip-rule="evenodd" width="80px"><defs><style type="text/css">

    .fil1 {fill:none}
    .fil0 {fill:black}

  </style></defs><g><g><path class="fil0" d="M3.41327 1.28134c-0.789311,0 -1.43159,0.642276 -1.43159,1.43171 1.1811e-005,0.789417 0.642276,1.43158 1.43158,1.43158 0.789433,-7.87402e-006 1.4317,-0.642154 1.4317,-1.43158 3.93701e-006,-0.789441 -0.642272,-1.43171 -1.4317,-1.43171zm0 3.00373c-0.866846,0 -1.57204,-0.705177 -1.57204,-1.57202 1.5748e-005,-0.866854 0.705185,-1.57216 1.57203,-1.57216 0.86698,0 1.57216,0.705307 1.57216,1.57216 0,0.866843 -0.705185,1.57203 -1.57215,1.57202z"/><path class="fil0" d="M1.90951 6.48c-0.00426378,0 -0.0085315,-0.000362205 -0.0127992,-0.00109055 -0.029252,-0.00549213 -0.051937,-0.0287756 -0.0565709,-0.0581575l-0.163252 -1.029 -0.972787 0.373185c-0.0278031,0.0106142 -0.0592598,0.0025748 -0.0785236,-0.0199843 -0.0193819,-0.022689 -0.022311,-0.0549843 -0.00743701,-0.0808307l1.03852 -1.79649c0.0195079,-0.0336575 0.0624173,-0.0451063 0.0959449,-0.0257205 0.0336614,0.0193701 0.0451102,0.0624213 0.0257244,0.0959488l-0.93926 1.62482 0.868547 -0.333217c0.019752,-0.00755906 0.0418189,-0.00583858 0.0602283,0.00476772 0.0182953,0.0105945 0.0309685,0.0288976 0.0342598,0.0498661l0.145819 0.919394 0.980606 -1.69298c0.019378,-0.0335354 0.0624134,-0.0449843 0.0959409,-0.0255984 0.0335394,0.0194961 0.0449843,0.0624213 0.0256024,0.0959488l-1.07983 1.86415c-0.0126732,0.0219449 -0.0359764,0.0349921 -0.0607244,0.0349882z"/><path class="fil0" d="M4.91715 6.48c-0.0247441,0 -0.0481614,-0.0130433 -0.0608386,-0.0351102l-1.06729 -1.8466c-0.0193819,-0.0335315 -0.00792126,-0.076437 0.0256063,-0.0959449 0.0336614,-0.0193898 0.076563,-0.0079252 0.0959488,0.0257244l0.968287 1.67505 0.145705 -0.919024c0.00329134,-0.0209724 0.0159567,-0.0392598 0.034248,-0.0498661 0.0184094,-0.0106102 0.0404764,-0.012315 0.0602283,-0.00475197l0.868689 0.333201 -0.944031 -1.63422c-0.019378,-0.0335197 -0.00780709,-0.0764331 0.0257205,-0.0958189 0.0335315,-0.0195197 0.0765669,-0.0079252 0.0959528,0.0256024l1.04314 1.80599c0.0148819,0.0257283 0.0119488,0.0580433 -0.00743701,0.0807165 -0.0192559,0.0225472 -0.0507205,0.0306024 -0.0785197,0.0199961l-0.972791 -0.373319 -0.163248 1.02912c-0.0046378,0.029378 -0.027315,0.0526732 -0.0565748,0.0580354 -0.00425591,0.000846457 -0.00853543,0.00122047 -0.0127992,0.00121654z"/><path class="fil0" d="M2.9507 4.43919c0.0176811,0 0.0348701,0.00670866 0.0480394,0.0190197l0.416358 0.390992 0.465862 -0.406366c0.017063,-0.0148661 0.0402205,-0.0205906 0.0622874,-0.0154685l0.555957 0.130449 0.200323 -0.584969c0.00731102,-0.0213425 0.0244921,-0.0379134 0.0461969,-0.0444961l0.546689 -0.165083 -0.118984 -0.606673c-0.00438976,-0.022189 0.00230709,-0.0451102 0.0177913,-0.0615669l0.390874 -0.416362 -0.406346 -0.465972c-0.0148858,-0.0169567 -0.0206181,-0.0401102 -0.0155,-0.0621772l0.130465 -0.555961 -0.584972 -0.200429c-0.0213425,-0.00731496 -0.0379213,-0.0243819 -0.0445079,-0.0460827l-0.165071 -0.546697 -0.606673 0.119c-0.022189,0.00426378 -0.0451181,-0.00231496 -0.0615787,-0.0177992l-0.416339 -0.390882 -0.465984 0.406362c-0.0169409,0.0148661 -0.0401181,0.0206063 -0.062185,0.0154843l-0.555953 -0.130453 -0.200311 0.584957c-0.00730709,0.0213465 -0.0245079,0.0379331 -0.0462087,0.0443937l-0.546689 0.165079 0.119 0.606783c0.00426378,0.022189 -0.00232283,0.045122 -0.0178031,0.0615827l-0.390878 0.416346 0.406362 0.46585c0.0148701,0.0170787 0.0206024,0.0402441 0.0154803,0.062189l-0.130445 0.556071 0.584972 0.200307c0.0213268,0.00732677 0.0379055,0.0245197 0.0444882,0.0462205l0.164965 0.546681 0.606795 -0.119c0.00451575,-0.000850394 0.00901575,-0.00133071 0.0135236,-0.00133071zm0.462697 0.574972c-0.017311,0 -0.0346378,-0.00633858 -0.0481693,-0.0190157l-0.436346 -0.409894 -0.633858 0.124346c-0.0353622,0.00695669 -0.0702323,-0.0141339 -0.0807165,-0.0486378l-0.173 -0.57315 -0.610937 -0.209209c-0.0341378,-0.0117087 -0.0538937,-0.0473031 -0.0457244,-0.0824173l0.136799 -0.582902 -0.42452 -0.486697c-0.0237717,-0.0271969 -0.0230551,-0.0679134 0.00169685,-0.0942441l0.40978 -0.43648 -0.12424 -0.633732c-0.00694094,-0.0353622 0.0140157,-0.0702244 0.0486417,-0.0807087l0.573146 -0.173008 0.20922 -0.611063c0.0117008,-0.0341378 0.0472953,-0.0537598 0.0824094,-0.0455945l0.582898 0.136791 0.486709 -0.424524c0.027185,-0.0237795 0.0679055,-0.0230394 0.0942402,0.0017126l0.43635 0.409768 0.633744 -0.124236c0.0354803,-0.00695669 0.0703386,0.0140236 0.0808228,0.0486496l0.173004 0.573012 0.610953 0.209335c0.0341378,0.0117126 0.053878,0.047315 0.0455866,0.0824291l-0.136661 0.58289 0.42452 0.486709c0.0237717,0.027185 0.0229134,0.0679094 -0.0017126,0.0942441l-0.409886 0.436346 0.124362 0.633728c0.00694094,0.0354843 -0.0141575,0.0703622 -0.0486575,0.0808465l-0.573146 0.172996 -0.209209 0.610937c-0.0116969,0.0341378 -0.047311,0.0539016 -0.0824252,0.0456102l-0.582894 -0.136685 -0.486697 0.424524c-0.0132913,0.0115906 -0.0297559,0.0173268 -0.0460827,0.0173228z"/><path class="fil0" d="M2.95437 3.42139c-0.0180394,0 -0.0359724,-0.0068189 -0.049752,-0.0205945l-0.358189 -0.358213c-0.0274331,-0.0274331 -0.027437,-0.0719213 -7.87402e-006,-0.0993543 0.0274409,-0.027437 0.071811,-0.0274291 0.0992402,0l0.308709 0.308575 1.22663 -1.22663c0.0274291,-0.0274331 0.0718071,-0.0274291 0.0992402,0 0.027437,0.0274291 0.0274331,0.0719331 0,0.0993661l-1.27625 1.27625c-0.0137835,0.0137717 -0.0317087,0.0206142 -0.049622,0.0206024z"/></g></g><rect class="fil1" width="6.82666" height="6.82666"/></svg>
