<svg xmlns="http://www.w3.org/2000/svg" xmlns:xlink="http://www.w3.org/1999/xlink" version="1.1" x="0px" y="0px" viewBox="0 0 100 125" style="enable-background:new 0 0 100 100;" xml:space="preserve" width="80px"><path d="M82.63,88.25l3.79,1.69c0.1,0.04,0.2,0.06,0.3,0.06c0.15,0,0.31-0.05,0.44-0.14c0.22-0.16,0.33-0.42,0.3-0.68l-0.44-4.13  l2.78-3.09c0.18-0.2,0.24-0.48,0.15-0.73c-0.08-0.25-0.29-0.44-0.55-0.5l-4.06-0.86l-2.07-3.59c-0.26-0.46-1.02-0.46-1.29,0  l-2.07,3.58l-4.06,0.86c-0.26,0.06-0.47,0.25-0.55,0.5c-0.08,0.25-0.02,0.53,0.15,0.73l2.78,3.09l-0.44,4.13  c-0.03,0.26,0.09,0.52,0.3,0.68c0.21,0.16,0.49,0.19,0.74,0.08L82.63,88.25z M77.41,81.92l2.89-0.61c0.36-0.06,0.67-0.28,0.83-0.59  l1.49-2.57l1.48,2.56c0.18,0.32,0.48,0.54,0.82,0.6l2.91,0.62l-1.99,2.22c-0.23,0.26-0.35,0.61-0.31,0.94l0.31,2.97l-2.75-1.22  c-0.15-0.06-0.31-0.09-0.47-0.09c-0.16,0-0.32,0.03-0.47,0.09c-0.01,0-0.01,0.01-0.02,0.01l-2.73,1.21l0.32-2.98  c0.03-0.33-0.08-0.67-0.32-0.94L77.41,81.92z"/><path d="M73.65,81.23c-0.08-0.25-0.29-0.44-0.55-0.5l-4.06-0.86l-2.07-3.59c-0.26-0.46-1.02-0.46-1.29,0l-2.07,3.58l-4.06,0.86  c-0.26,0.06-0.47,0.25-0.55,0.5c-0.08,0.25-0.02,0.53,0.15,0.73l2.78,3.09l-0.44,4.13c-0.03,0.26,0.09,0.52,0.3,0.68  c0.21,0.16,0.49,0.19,0.74,0.08l3.79-1.69l3.79,1.69c0.1,0.04,0.2,0.06,0.3,0.06c0.15,0,0.31-0.05,0.44-0.14  c0.22-0.16,0.33-0.42,0.3-0.68l-0.44-4.13l2.78-3.09C73.67,81.76,73.73,81.48,73.65,81.23z M69.53,84.14  c-0.23,0.26-0.35,0.61-0.31,0.94l0.31,2.97l-2.75-1.22c-0.15-0.06-0.31-0.09-0.47-0.09c-0.16,0-0.32,0.03-0.47,0.09  c-0.01,0-0.01,0.01-0.02,0.01l-2.73,1.21l0.32-2.98c0.03-0.33-0.08-0.67-0.32-0.94l-1.99-2.21l2.89-0.61  c0.35-0.06,0.66-0.28,0.83-0.59l1.49-2.57l1.48,2.56c0.18,0.32,0.48,0.54,0.82,0.6l2.91,0.62L69.53,84.14z"/><path d="M57.34,81.23c-0.08-0.25-0.29-0.44-0.55-0.5l-4.06-0.86l-2.07-3.59c-0.27-0.46-1.02-0.46-1.29,0l-2.07,3.58l-4.06,0.86  c-0.26,0.06-0.47,0.25-0.55,0.5c-0.08,0.25-0.02,0.53,0.15,0.73l2.78,3.09l-0.44,4.13c-0.03,0.26,0.09,0.52,0.3,0.68  c0.21,0.16,0.49,0.19,0.74,0.08L50,88.25l3.79,1.69c0.1,0.04,0.2,0.06,0.3,0.06c0.15,0,0.31-0.05,0.44-0.14  c0.22-0.16,0.33-0.42,0.3-0.68l-0.44-4.13l2.78-3.09C57.36,81.76,57.42,81.48,57.34,81.23z M53.22,84.14  c-0.23,0.26-0.35,0.61-0.31,0.94l0.31,2.97l-2.75-1.22c-0.15-0.06-0.31-0.09-0.47-0.09s-0.32,0.03-0.47,0.09  c-0.01,0-0.01,0.01-0.02,0.01l-2.73,1.21l0.31-2.97c0.03-0.33-0.08-0.68-0.31-0.95l-1.99-2.21l2.89-0.61  c0.35-0.06,0.66-0.28,0.83-0.59L50,78.14l1.48,2.56c0.18,0.32,0.48,0.53,0.82,0.59l2.91,0.62L53.22,84.14z"/><path d="M29.15,89.86c0.13,0.09,0.28,0.14,0.44,0.14c0.1,0,0.21-0.02,0.3-0.06l3.79-1.69l3.79,1.69c0.25,0.11,0.53,0.08,0.74-0.08  c0.22-0.16,0.33-0.42,0.3-0.68l-0.44-4.13l2.78-3.09c0.18-0.2,0.24-0.48,0.15-0.73c-0.08-0.25-0.29-0.44-0.55-0.5l-4.06-0.86  l-2.07-3.59c-0.13-0.23-0.38-0.37-0.64-0.37s-0.51,0.14-0.64,0.37l-2.07,3.59l-4.06,0.86c-0.26,0.06-0.47,0.25-0.55,0.5  c-0.08,0.25-0.02,0.53,0.15,0.73l2.78,3.09l-0.44,4.13C28.82,89.44,28.94,89.7,29.15,89.86z M28.48,81.92l2.89-0.61  c0.36-0.06,0.66-0.28,0.83-0.59l1.49-2.57l1.48,2.56c0.18,0.32,0.48,0.53,0.82,0.59l2.91,0.62l-1.99,2.22  c-0.23,0.26-0.34,0.6-0.31,0.94l0.31,2.97l-2.75-1.22c-0.31-0.13-0.64-0.13-0.95,0c-0.01,0-0.01,0.01-0.02,0.01l-2.73,1.21  l0.31-2.97c0.03-0.33-0.08-0.68-0.31-0.95L28.48,81.92z"/><path d="M12.84,89.86c0.13,0.09,0.28,0.14,0.44,0.14c0.1,0,0.21-0.02,0.3-0.06l3.79-1.69l3.79,1.69c0.25,0.11,0.53,0.08,0.74-0.08  c0.22-0.16,0.33-0.42,0.3-0.68l-0.44-4.13l2.78-3.09c0.18-0.2,0.24-0.48,0.15-0.73c-0.08-0.25-0.29-0.44-0.55-0.5l-4.06-0.86  l-2.07-3.59c-0.13-0.23-0.38-0.37-0.64-0.37c-0.27,0-0.51,0.14-0.64,0.37l-2.07,3.59l-4.06,0.86c-0.26,0.06-0.47,0.25-0.55,0.5  c-0.08,0.25-0.02,0.53,0.15,0.73l2.78,3.09l-0.44,4.13C12.51,89.44,12.62,89.7,12.84,89.86z M12.16,81.92l2.89-0.61  c0.36-0.06,0.66-0.28,0.83-0.59l1.49-2.57l1.48,2.56c0.18,0.32,0.48,0.54,0.82,0.6l2.91,0.62l-1.99,2.22  c-0.23,0.26-0.34,0.6-0.31,0.94l0.31,2.97l-2.75-1.22c-0.31-0.13-0.64-0.13-0.95,0c-0.01,0-0.01,0.01-0.02,0.01l-2.73,1.21  l0.31-2.97c0.03-0.33-0.08-0.68-0.31-0.95L12.16,81.92z"/><path d="M37.89,52.41h5.87c0.37,0,0.67-0.3,0.67-0.67v-0.58c2.05,0.87,5.66,1.26,6.84,1.26h2.19h4.21H59c1.29,0,2.33-1.05,2.33-2.33  c0-0.49-0.15-0.94-0.4-1.31c0.7-0.4,1.18-1.15,1.18-2.01c0-0.58-0.22-1.11-0.58-1.52c0.53-0.43,0.87-1.07,0.87-1.8  c0-0.56-0.21-1.07-0.54-1.48c0.56-0.43,0.93-1.09,0.93-1.85c0-1.29-1.05-2.33-2.33-2.33h-5.54c0,0-0.01,0-0.01,0h-0.14l0.35-1.48  c0,0,0,0,0-0.01c0,0,0,0,0-0.01c0.15-0.69,0.19-1.67,0.13-2.78c-0.18-2.96-1.65-6.41-5.18-6.41c-1.06,0-1.91,0.86-1.91,1.91  c0,0.05,0.01,0.1,0.02,0.15c0.52,2.25,1.17,5.05-0.08,7.02c-0.69,1.09-1.85,1.75-3.07,2.45c-0.19,0.11-0.37,0.23-0.56,0.34v-0.44  c0-0.37-0.3-0.67-0.67-0.67h-5.87c-0.37,0-0.67,0.3-0.67,0.67v13.22C37.22,52.11,37.52,52.41,37.89,52.41z M44.44,40.54  c0.4-0.26,0.81-0.51,1.23-0.75c1.31-0.75,2.67-1.52,3.54-2.9c1.53-2.41,0.82-5.6,0.27-7.95c0.03-0.29,0.28-0.51,0.57-0.51  c2.6,0,3.69,2.78,3.84,5.16c0.06,0.97,0.02,1.85-0.1,2.41l-0.54,2.29c0,0.02,0,0.04,0,0.06c-0.01,0.03-0.02,0.06-0.02,0.1  c0,0.02,0.01,0.05,0.01,0.07c0,0.03,0.01,0.06,0.02,0.1c0.01,0.05,0.03,0.1,0.06,0.15c0.01,0.03,0.03,0.05,0.05,0.07  c0.03,0.05,0.07,0.09,0.11,0.12c0.02,0.02,0.05,0.03,0.07,0.05c0.05,0.03,0.1,0.05,0.15,0.07c0.01,0,0.02,0.01,0.04,0.02  c0.04,0.01,0.08,0.01,0.12,0.01c0.01,0,0.02,0.01,0.03,0.01h3.77c0,0,0.01,0,0.01,0h2.76c0.55,0,0.99,0.44,0.99,0.99  c0,0.55-0.44,0.99-0.99,0.99h-0.38h-1.78H57.9c-0.37,0-0.67,0.3-0.67,0.67c0,0.37,0.3,0.67,0.67,0.67h0.38h1.78  c0.55,0,0.99,0.44,0.99,0.99c0,0.55-0.44,0.99-0.99,0.99h-0.29H57.9h-0.29c-0.37,0-0.67,0.3-0.67,0.67c0,0.37,0.3,0.67,0.67,0.67  h0.29h1.87c0.55,0,0.99,0.44,0.99,0.99c0,0.55-0.44,0.99-0.99,0.99H59h-1.39h-0.77c-0.37,0-0.67,0.3-0.67,0.67s0.3,0.67,0.67,0.67  h0.77H59c0.55,0,0.99,0.44,0.99,0.99c0,0.55-0.44,0.99-0.99,0.99h-1.32h-4.21h-2.19c-1.76,0-5.73-0.64-6.84-1.43V40.54z M38.57,39.2  h4.53v11.87h-4.53V39.2z"/><path d="M22.97,34.46c-2.4,0.71-3.96,2.78-3.96,5.29c0,2.51,1.55,4.58,3.96,5.29c1.29,0.38,2.27,1.33,2.69,2.62  c0.42,1.28,0.18,2.63-0.64,3.7c-1.53,1.99-1.56,4.58-0.09,6.61c1.47,2.03,3.95,2.79,6.31,1.95c1.27-0.45,2.62-0.26,3.71,0.54  c1.09,0.79,1.69,2.02,1.66,3.37c-0.07,2.5,1.43,4.62,3.81,5.4c2.38,0.77,4.84-0.06,6.25-2.13c0.76-1.11,1.97-1.75,3.32-1.75  s2.56,0.64,3.32,1.75c1.07,1.55,2.72,2.41,4.49,2.41c0.58,0,1.18-0.09,1.77-0.28c2.38-0.77,3.88-2.89,3.81-5.4  c-0.04-1.35,0.57-2.58,1.66-3.37c1.09-0.79,2.45-0.99,3.71-0.54c2.37,0.84,4.84,0.07,6.31-1.95c1.47-2.03,1.44-4.62-0.09-6.61  c-0.82-1.07-1.06-2.42-0.64-3.7c0.42-1.28,1.4-2.24,2.69-2.62c2.4-0.71,3.96-2.78,3.96-5.29c0-2.51-1.55-4.58-3.96-5.29  c-1.29-0.38-2.27-1.33-2.69-2.62c-0.42-1.28-0.18-2.63,0.64-3.7c1.53-1.99,1.56-4.58,0.09-6.61c-1.47-2.03-3.95-2.79-6.31-1.96  c-1.27,0.45-2.62,0.26-3.71-0.54c-1.09-0.79-1.69-2.02-1.66-3.37c0.07-2.5-1.43-4.62-3.81-5.4c-2.39-0.77-4.84,0.06-6.25,2.13  c-0.76,1.11-1.97,1.75-3.32,1.75s-2.56-0.64-3.32-1.75c-1.42-2.07-3.87-2.9-6.25-2.13c-2.38,0.77-3.88,2.89-3.81,5.4  c0.04,1.35-0.57,2.58-1.66,3.37c-1.09,0.79-2.45,0.99-3.71,0.54c-2.36-0.84-4.84-0.07-6.31,1.96c-1.47,2.03-1.44,4.62,0.09,6.61  c0.82,1.07,1.06,2.42,0.64,3.7C25.24,33.13,24.27,34.08,22.97,34.46z M27.08,32.3c0.56-1.73,0.24-3.63-0.87-5.07  c-1.36-1.76-0.88-3.7-0.07-4.82c0.82-1.12,2.51-2.18,4.6-1.43c1.71,0.61,3.62,0.34,5.09-0.73c1.47-1.07,2.32-2.8,2.27-4.61  c-0.06-2.22,1.46-3.51,2.78-3.94c1.32-0.43,3.31-0.28,4.57,1.55c1.03,1.5,2.73,2.4,4.55,2.4s3.52-0.9,4.55-2.4  c1.26-1.83,3.24-1.98,4.57-1.55c1.32,0.43,2.84,1.72,2.78,3.94c-0.05,1.82,0.8,3.54,2.27,4.61c1.47,1.07,3.37,1.34,5.09,0.73  c2.09-0.75,3.79,0.3,4.6,1.43c0.82,1.12,1.29,3.06-0.07,4.82c-1.11,1.44-1.44,3.34-0.87,5.07c0.56,1.73,1.94,3.07,3.69,3.59  c2.13,0.63,2.89,2.47,2.89,3.86c0,1.39-0.76,3.23-2.89,3.86c-1.75,0.51-3.12,1.85-3.69,3.59c-0.56,1.73-0.24,3.63,0.87,5.07  c1.36,1.76,0.88,3.7,0.07,4.82c-0.82,1.12-2.51,2.17-4.6,1.43c-1.72-0.61-3.62-0.34-5.09,0.73c-1.47,1.07-2.32,2.8-2.27,4.61  c0.06,2.22-1.46,3.51-2.78,3.94c-1.32,0.43-3.31,0.28-4.57-1.55c-1.03-1.5-2.73-2.4-4.55-2.4s-3.52,0.9-4.55,2.4  c-1.26,1.83-3.24,1.98-4.57,1.55c-1.32-0.43-2.84-1.72-2.78-3.94c0.05-1.82-0.8-3.54-2.27-4.61c-1.47-1.07-3.37-1.34-5.09-0.73  c-2.09,0.75-3.79-0.3-4.6-1.43c-0.82-1.12-1.29-3.06,0.07-4.82c1.11-1.44,1.44-3.34,0.87-5.07c-0.56-1.73-1.94-3.07-3.69-3.59  c-2.13-0.63-2.89-2.47-2.89-3.86c0-1.39,0.76-3.23,2.89-3.86C25.14,35.38,26.52,34.04,27.08,32.3z"/></svg>
