<svg xmlns="http://www.w3.org/2000/svg" data-name="Layer 1" viewBox="0 10 130 110" x="0px" y="0px" width="80px"><path d="M126.3,56.1l-7.5-6.7V49h-.5l-7.6-6.7a5.06874,5.06874,0,0,0-3.3-1.3H92V30a4.95143,4.95143,0,0,0-5-5H29a4.95143,4.95143,0,0,0-5,5v2h2V30a2.94645,2.94645,0,0,1,3-3H87a2.94645,2.94645,0,0,1,3,3V58H26V54H24V70a4.95143,4.95143,0,0,0,5,5h6.4a10.982,10.982,0,0,0,21.1,6.1,10.56113,10.56113,0,0,0,0-6.1H93.4a10.982,10.982,0,1,0,21.1,6.1,10.56113,10.56113,0,0,0,0-6.1h8.4a4.95143,4.95143,0,0,0,5-5V59.8A4.41074,4.41074,0,0,0,126.3,56.1ZM46,87a9,9,0,1,1,9-9A8.96258,8.96258,0,0,1,46,87ZM90,73H55.8A10.99347,10.99347,0,0,0,41,68.2,10.62176,10.62176,0,0,0,36.2,73H29a2.94645,2.94645,0,0,1-3-3V60H90Zm35-15.4a4.19461,4.19461,0,0,1,.9,1.4H104a.94477.94477,0,0,1-1-1V52a.94477.94477,0,0,1,1-1h13.6ZM104,87a9,9,0,1,1,9-9A8.96258,8.96258,0,0,1,104,87Zm22-17a2.94646,2.94646,0,0,1-3,3h-9.2A10.99347,10.99347,0,0,0,99,68.2,10.62177,10.62177,0,0,0,94.2,73H92V43h15.5a3.17581,3.17581,0,0,1,2,.8l5.9,5.2H104a2.94645,2.94645,0,0,0-3,3v6a2.94645,2.94645,0,0,0,3,3h22Z"/><path d="M104,73a5,5,0,1,0,5,5A4.95143,4.95143,0,0,0,104,73Zm0,8a3,3,0,1,1,3-3A2.94646,2.94646,0,0,1,104,81Z"/><path d="M0,51a.94477.94477,0,0,0,1,1H31a1,1,0,0,0,0-2H1a.94477.94477,0,0,0-1,1Z"/><path d="M8.1,43a.94477.94477,0,0,0,1,1H31a1,1,0,0,0,0-2H9.1a1.00209,1.00209,0,0,0-1,1Z"/><path d="M32,35a.94477.94477,0,0,0-1-1H18.9a1,1,0,0,0,0,2H31a.94477.94477,0,0,0,1-1Z"/><path d="M55,48a.94477.94477,0,0,0,1,1H78a1,1,0,0,0,0-2H56a.94477.94477,0,0,0-1,1Z"/><path d="M50,52a.94477.94477,0,0,0,1,1H83a1,1,0,0,0,0-2H51a.94477.94477,0,0,0-1,1Z"/><path d="M1,89a1,1,0,0,0,0,2H127a1,1,0,0,0,0-2Z"/><path d="M127,101H1a1,1,0,0,0,0,2H127a1,1,0,0,0,0-2Z"/><rect x="24" y="38" width="2" height="2"/></svg>
