<svg xmlns="http://www.w3.org/2000/svg" version="1.1" viewBox="-20 0 130.0 100.0" width="80px">
 <path d="m61.672 71.145c-0.019531-0.03125-0.039063-0.050781-0.0625-0.070312l-0.09375-0.10156c-3.582-3.8281-5.9492-6.3555-8.9688-7.2344-2.7656-0.80469-5.8672-0.21484-11.223 2.1641-8.1719-11.348-11.266-16.695-17-29.449 4.7461-3.4492 6.7969-5.8359 7.4883-8.6445 0.75391-3.0508-0.25391-6.3672-1.7852-11.379l-0.039063-0.13281c-0.011719-0.03125-0.019531-0.0625-0.03125-0.09375-0.19531-0.5-0.38672-1.0312-0.57031-1.5391-0.91797-2.5703-1.9492-5.4883-4.8164-6.5312-2.9688-1.0703-7.2969 0.17188-13.645 3.9492-3.7812 2.3164-7.4648 5.0195-7.2109 10.297 0 0.050782 0.011718 0.09375 0.019531 0.14453 4.0391 24.43 20.223 52.461 39.355 68.172 0.039062 0.03125 0.082031 0.0625 0.11328 0.082032 1.6328 1.0508 3.2344 1.4688 4.7969 1.4688 2.6836 0 5.2773-1.2227 7.7539-2.582 6.418-3.6016 9.6641-6.7227 10.223-9.8359 0.53125-3-1.4805-5.3555-3.2461-7.4297-0.35156-0.41016-0.71875-0.83594-1.0586-1.2539zm1.7969 8.2422c-0.39844 2.2344-3.418 4.9492-8.9492 8.0508-4.1211 2.2461-6.9297 3.1016-9.8789 1.2344-18.652-15.344-34.426-42.66-38.387-66.488-0.14453-3.4883 2-5.4883 5.9883-7.9297 5.4688-3.2461 9.3281-4.5 11.461-3.7344 1.7344 0.62109 2.4492 2.6445 3.2773 4.9883 0.18359 0.51953 0.37891 1.0508 0.58203 1.5703l0.03125 0.082031c1.4492 4.7773 2.3281 7.6641 1.7461 10.031-0.5625 2.2852-2.5508 4.3984-7.3359 7.7773-0.5 0.34766-0.67188 1-0.42969 1.5625 6.1836 13.805 9.4297 19.438 18.297 31.695 0.35547 0.48828 1.0117 0.66406 1.5625 0.40625 5.3281-2.4492 8.1445-3.1211 10.406-2.4688 2.3359 0.67188 4.3984 2.8789 7.8164 6.5312l0.0625 0.0625c0.35547 0.4375 0.72266 0.86719 1.0703 1.2852 1.6172 1.9062 3.0078 3.5273 2.6797 5.3438zm27.492-62.754h-3.2852v-3.2852c0-2.9492-2.3984-5.3477-5.3477-5.3477h-36.777c-2.9492 0-5.3477 2.3984-5.3477 5.3477v36.988c0 0.55078 0.35547 1.0391 0.88672 1.2148 0.13281 0.039063 0.26562 0.0625 0.38672 0.0625 0.39844 0 0.78516-0.19531 1.0312-0.53125l7.1016-9.8672h2.0625v3.2852c0 2.9492 2.3984 5.3477 5.3477 5.3477h29.867l7.1016 9.8672c0.24609 0.33594 0.63281 0.53125 1.0312 0.53125 0.13281 0 0.26562-0.019532 0.38672-0.0625 0.53125-0.17188 0.88672-0.66406 0.88672-1.2148l0.003906-37c0-2.9492-2.3984-5.3359-5.3359-5.3359zm-42 22.031c-0.40625 0-0.79688 0.19531-1.0312 0.53125l-5.1719 7.1953-0.003906-33.043c0-1.5391 1.2539-2.7969 2.7969-2.7969h36.777c1.5391 0 2.7969 1.2539 2.7969 2.7969v22.531c0 1.5391-1.2539 2.7969-2.7969 2.7969l-33.367-0.003906zm44.793 16.348-5.1719-7.1953c-0.23438-0.33594-0.62109-0.53125-1.0312-0.53125h-30.531c-1.5391 0-2.7969-1.2539-2.7969-2.7969v-3.2852h28.102c2.9492 0 5.3477-2.3984 5.3477-5.3477v-16.684h3.2852c1.5391 0 2.7969 1.2539 2.7969 2.7969zm-13.742-22.766c0 0.70312-0.57031 1.2773-1.2773 1.2773l-29.582-0.003907c-0.70312 0-1.2773-0.57031-1.2773-1.2773 0-0.70313 0.57031-1.2773 1.2773-1.2773h29.582c0.70312 0.003906 1.2773 0.57422 1.2773 1.2812zm0-15.277c0 0.70312-0.57031 1.2773-1.2773 1.2773h-29.582c-0.70312 0-1.2773-0.57031-1.2773-1.2773 0-0.70312 0.57031-1.2773 1.2773-1.2773h29.582c0.70312 0.003906 1.2773 0.57422 1.2773 1.2773zm0 7.6445c0 0.70312-0.57031 1.2773-1.2773 1.2773l-29.582-0.003906c-0.70312 0-1.2773-0.57031-1.2773-1.2773 0-0.70312 0.57031-1.2773 1.2773-1.2773h29.582c0.70312 0.003907 1.2773 0.57422 1.2773 1.2812z"/>
</svg>
